# xmcd
#
# Track frame offsets:
#	150
#	20655
#	36555
#	49142
#	69300
#	84798
#	99204
#	115795
#	131791
#	152734
#	165914
#	180517
#
# Disc length: 2637 seconds
#
# Revision: 0
# Processed by: cddbd v1.5.2PL0 Copyright (c) Steve Scherf et al.
# Submitted via: audiograbber 1.83.01
#
DISCID=8e0a4b0c
DTITLE=Various Artist - Die Neuen Top Hits
DYEAR=1900
DGENRE=Pop
TTITLE0=Baker Street
TTITLE1=Night Fever 
TTITLE2=Ca Plane Pour Moi
TTITLE3=Stayin' Alive
TTITLE4=One For You, One For Me
TTITLE5=Oh, Carol
TTITLE6=If You Can't Give Me Love 
TTITLE7=Ich Möcht So Gern Dave Dudley Hör'n
TTITLE8=Eagle
TTITLE9=You're The One That I Want
TTITLE10=Amore Mio
TTITLE11=Bora Bora 
EXTD=
EXTT0=
EXTT1=
EXTT2=
EXTT3=
EXTT4=
EXTT5=
EXTT6=
EXTT7=
EXTT8=
EXTT9=
EXTT10=
EXTT11=
PLAYORDER=
